<svg xmlns="http://www.w3.org/2000/svg" width="257.4" height="360.22" viewBox="0 0 257.4 360.22"><defs><style>.cls-1{fill:#6d93cc;}</style></defs><g id="Layer_2" data-name="Layer 2"><g id="Layer_1-2" data-name="Layer 1"><path class="cls-1" d="M70.25,132.87l-66,48.94a10.47,10.47,0,0,0,.3,17L236,358.14a11.66,11.66,0,0,0,18.27-9.46L257.4,85.37a10.71,10.71,0,0,0-4.16-8.6L230.81,59.44A10.71,10.71,0,0,0,213.55,68l.91,223.59L87.09,200.49a10.48,10.48,0,0,1-.54-16.62l19-15.51a10.47,10.47,0,0,0,.78-15.5L87.58,134.15A13.3,13.3,0,0,0,70.25,132.87Z"/><path class="cls-1" d="M191.16,41.91,95.32,114a8.44,8.44,0,0,0-1.22,12.38l23.17,25.9a7.21,7.21,0,0,0,10,.68l21.94-18.73a7.93,7.93,0,0,1,13.08,6.31l-1.8,51.76a7.74,7.74,0,0,1-12.86,5.52l-10.58-9.36a8,8,0,0,0-11.41.83l-5.21,6.18a8,8,0,0,0,1.41,11.61l66.38,48.45A8.61,8.61,0,0,0,202,248.59V89.22a8.14,8.14,0,0,0-13.29-6.3l-54,44.23a7.21,7.21,0,0,1-10.44-1.4h0a8.45,8.45,0,0,1,1.82-11.65l76-57A8.13,8.13,0,0,0,204.43,47l-1.1-2.19A8.14,8.14,0,0,0,191.16,41.91Z"/><path class="cls-1" d="M221.62,19.81l24.6-18.4A7,7,0,0,1,257.4,7v37.8a7,7,0,0,1-11.27,5.54l-24.6-19A7.26,7.26,0,0,1,221.62,19.81Z"/></g></g></svg>